<?xml version="1.0" encoding="UTF-8"?>
<svg version="1.1" xmlns="http://www.w3.org/2000/svg" width="96" height="96">
<path d="M0 0 C26.4 0 52.8 0 80 0 C80 26.4 80 52.8 80 80 C75.49596339 76.13939719 72.52707844 73.50353699 68.99243164 69.19360352 C64.09528859 64.27116124 59.94102102 63.92847425 53.16906738 63.82824707 C51.81972147 63.85174962 50.47039565 63.8764375 49.12109375 63.90234375 C47.87203247 63.89174927 46.62297119 63.88115479 45.33605957 63.87023926 C40.70322675 63.84394431 36.07021473 63.89524387 31.4375 63.9375 C21.063125 63.958125 10.68875 63.97875 0 64 C0 42.88 0 21.76 0 0 Z M21 16 C19.28662167 20.23407987 17.57774373 24.46993692 15.87304688 28.70751953 C15.29225637 30.14942616 14.71023 31.59083563 14.12695312 33.03173828 C13.28972689 35.10059835 12.45693291 37.17119419 11.625 39.2421875 C11.36251465 39.88807831 11.1000293 40.53396912 10.82958984 41.19943237 C9.44978054 44.49619957 9.44978054 44.49619957 9 48 C10.98 48 12.96 48 15 48 C15.99 44.535 15.99 44.535 17 41 C21.62 41 26.24 41 31 41 C31.66 43.31 32.32 45.62 33 48 C34.98 48 36.96 48 39 48 C36.94400621 40.55838512 34.29150906 33.49231351 31.3125 26.375 C30.68891602 24.86873047 30.68891602 24.86873047 30.05273438 23.33203125 C29.03945904 20.88619424 28.02183204 18.4422715 27 16 C25.02 16 23.04 16 21 16 Z M56 16 C56 17.98 56 19.96 56 22 C52.04 22 48.08 22 44 22 C44 23.32 44 24.64 44 26 C51.26 26 58.52 26 66 26 C62.44230769 36.67307692 62.44230769 36.67307692 58 39 C55.4375 39.25 55.4375 39.25 53 38 C51.3569252 35.45536793 50.14199171 32.80075063 49 30 C47.68 30 46.36 30 45 30 C45.51525603 35.28137429 47.25477117 38.57221156 50 43 C48.02 43 46.04 43 44 43 C44 44.32 44 45.64 44 47 C48.57619757 47.07756267 52.51322418 46.89735516 57 46 C57.99 46.33 58.98 46.66 60 47 C62.33299825 47.03954234 64.66708189 47.04401732 67 47 C67 45.68 67 44.36 67 43 C65.68 43 64.36 43 63 43 C63.48210937 42.443125 63.96421875 41.88625 64.4609375 41.3125 C69.73414837 34.94160034 72 30.41807443 72 22 C68.04 22 64.08 22 60 22 C60 20.02 60 18.04 60 16 C58.68 16 57.36 16 56 16 Z " fill="#000000" transform="translate(8,12)"/>
<path d="M0 0 C0.66 0 1.32 0 2 0 C2.67057887 1.7902061 3.3363469 3.58221489 4 5.375 C4.556875 6.87160156 4.556875 6.87160156 5.125 8.3984375 C6 11 6 11 6 13 C2.7 13 -0.6 13 -4 13 C-3.52140759 11.39566191 -3.04210442 9.79153584 -2.5625 8.1875 C-2.29566406 7.29417969 -2.02882813 6.40085937 -1.75390625 5.48046875 C-1.19612127 3.64526945 -0.60655425 1.81966274 0 0 Z " fill="#000000" transform="translate(31,36)"/>
</svg>
