<?xml version="1.0" encoding="UTF-8"?>
<svg version="1.1" xmlns="http://www.w3.org/2000/svg" width="716" height="266">
<path d="M0 0 C236.28 0 472.56 0 716 0 C716 87.78 716 175.56 716 266 C479.72 266 243.44 266 0 266 C0 178.22 0 90.44 0 0 Z " fill="#000000" transform="translate(0,0)"/>
<path d="M0 0 C7.65161007 2.2427133 10.59792714 7.14697785 14.42578125 13.7578125 C17.16998113 19.03168198 17.34515665 24.23266047 16.625 30.0625 C12.73002322 36.03479774 4.8100301 39.34861394 -2 40.875 C-3.175625 40.9678125 -3.175625 40.9678125 -4.375 41.0625 C0.29375046 46.94918536 7.38734362 47.90778849 14.43359375 49.1484375 C15.40997803 49.32165527 16.3863623 49.49487305 17.39233398 49.67333984 C18.12911377 49.8017627 18.86589355 49.93018555 19.625 50.0625 C19.99262451 49.22589844 20.36024902 48.38929688 20.73901367 47.52734375 C22.12263917 44.38663342 23.51176815 41.24847502 24.90454102 38.11181641 C25.50307434 36.76089177 26.09947999 35.40902216 26.69360352 34.05615234 C35.63761362 13.700819 35.63761362 13.700819 42.6875 9.375 C46.39431382 6.96639966 49.1345842 4.79812369 51.625 1.0625 C53.0665018 1.2649751 54.50335746 1.50068335 55.9375 1.75 C56.73800781 1.87761719 57.53851563 2.00523437 58.36328125 2.13671875 C61.59936222 3.46133221 62.21467715 4.87980128 63.625 8.0625 C64.34747036 10.89279995 64.81389317 13.73827014 65.25 16.625 C66.10882227 22.92072938 66.10882227 22.92072938 67.625 29.0625 C70.15086626 30.85912657 70.15086626 30.85912657 73.1875 32.3125 C74.19941406 32.83328125 75.21132813 33.3540625 76.25390625 33.890625 C77.03636719 34.27734375 77.81882812 34.6640625 78.625 35.0625 C78.86863281 34.33804688 79.11226563 33.61359375 79.36328125 32.8671875 C80.78149441 29.71462697 82.46491456 27.7169122 84.8125 25.1875 C85.54855469 24.38570312 86.28460938 23.58390625 87.04296875 22.7578125 C87.89503906 21.86835938 88.74710937 20.97890625 89.625 20.0625 C90.13498535 19.51754883 90.6449707 18.97259766 91.17041016 18.41113281 C95.58868784 13.81061869 100.34419207 10.12438723 105.625 6.5625 C106.39328125 6.01335937 107.1615625 5.46421875 107.953125 4.8984375 C111.79120142 2.30055584 113.76528199 1.04951332 118.50390625 1.12109375 C122.19304921 2.233839 124.12091449 3.10312622 126.625 6.0625 C126.89779838 8.75510264 126.71592543 11.34851353 126.625 14.0625 C125.62082031 14.58457031 124.61664063 15.10664063 123.58203125 15.64453125 C109.04487019 23.38660584 97.97062235 31.61524439 89.625 46.0625 C99.35928976 45.05587378 109.03058907 44.04900799 118.625 42.0625 C118.24794922 41.08410156 118.24794922 41.08410156 117.86328125 40.0859375 C115.34603694 32.88470693 115.34603694 32.88470693 116.8125 28.5625 C118.625 26.0625 118.625 26.0625 120.625 24.0625 C123.81958137 24.43614745 126.08241081 25.81852076 128.734375 27.56640625 C129.48847656 28.05947266 130.24257813 28.55253906 131.01953125 29.06054688 C131.79683594 29.57681641 132.57414063 30.09308594 133.375 30.625 C134.16777344 31.14513672 134.96054687 31.66527344 135.77734375 32.20117188 C137.7299282 33.48329058 139.67893387 34.77051774 141.625 36.0625 C145.72691878 30.72438652 147.01210409 26.90133901 146.625 20.0625 C146.295 19.4025 145.965 18.7425 145.625 18.0625 C145.06433054 12.17547071 145.06433054 12.17547071 145.625 10.0625 C149.19031648 7.53775892 152.49979754 6.40463997 156.73828125 5.45703125 C158.4872168 5.06547852 158.4872168 5.06547852 160.27148438 4.66601562 C161.48126953 4.40498047 162.69105469 4.14394531 163.9375 3.875 C165.73477539 3.46604492 165.73477539 3.46604492 167.56835938 3.04882812 C182.79991223 -0.29959589 182.79991223 -0.29959589 189.125 2.75 C191.625 5.0625 191.625 5.0625 192.3125 7.5625 C191.32925631 11.13793159 189.68963323 12.00069178 186.625 14.0625 C183.86734429 15.15694792 181.05378234 15.93046279 178.1875 16.6875 C176.70938141 17.09543491 175.23151181 17.50427322 173.75390625 17.9140625 C173.05410645 18.10516602 172.35430664 18.29626953 171.63330078 18.49316406 C168.93234563 19.25886154 166.27803757 20.14591967 163.625 21.0625 C163.955 21.7225 164.285 22.3825 164.625 23.0625 C165.33785156 22.99289063 166.05070313 22.92328125 166.78515625 22.8515625 C172.13034662 22.54941177 175.65528448 22.41852096 179.8125 26.0625 C180.77609582 27.03737914 181.72410937 28.02939675 182.625 29.0625 C181.35009667 32.99345192 180.27711941 35.04422348 176.625 37.0625 C171.02716855 38.83023625 165.80484776 39.34389742 159.9453125 39.5234375 C157.4863203 39.82501889 157.4863203 39.82501889 156.3046875 41.9140625 C155.47418545 44.16364796 155.47418545 44.16364796 155.625 47.0625 C156.22449463 46.96638428 156.82398926 46.87026855 157.44165039 46.77124023 C160.18871602 46.33693517 162.93796397 45.91836794 165.6875 45.5 C166.63044922 45.34853516 167.57339844 45.19707031 168.54492188 45.04101562 C173.86089652 44.24454556 178.36804058 43.81816652 183.625 45.0625 C185.5625 46.75 185.5625 46.75 186.625 49.0625 C186.8125 52.3125 186.8125 52.3125 186.625 55.0625 C175.78671623 61.82246049 161.26162737 63.63245858 148.625 62.0625 C145.69981821 60.74210544 144.09706419 59.876126 142.48046875 57.08984375 C142.26003906 56.40019531 142.03960937 55.71054688 141.8125 55 C141.57917969 54.30777344 141.34585938 53.61554688 141.10546875 52.90234375 C140.625 51.0625 140.625 51.0625 140.625 49.0625 C139.33529297 49.64257812 139.33529297 49.64257812 138.01953125 50.234375 C122.15516366 57.22369289 105.24708996 63.01238547 87.625 61.0625 C83.81669107 59.35532703 82.27485736 57.96765846 79.875 54.625 C77.98509437 49.23876895 77.33725729 43.71028135 76.625 38.0625 C74.11560508 40.18353619 72.75287779 41.35704084 72.15625 44.6484375 C72.1459375 45.56882813 72.135625 46.48921875 72.125 47.4375 C71.83382944 52.4006345 71.04589787 55.26150237 67.625 59.0625 C65.09942386 61.00525087 63.20139755 61.91840061 60.125 62.6875 C56.53527762 61.79006941 55.4904038 59.61377235 53.54296875 56.59375 C53.24003906 56.0884375 52.93710937 55.583125 52.625 55.0625 C53.9274333 52.15707188 55.33386268 50.2532039 57.625 48.0625 C56.58859375 48.10890625 55.5521875 48.1553125 54.484375 48.203125 C53.11461221 48.24065275 51.74481818 48.27705184 50.375 48.3125 C49.35212891 48.36277344 49.35212891 48.36277344 48.30859375 48.4140625 C44.70318187 48.4840705 42.98431188 48.35401719 40.140625 46.046875 C39.64046875 45.39203125 39.1403125 44.7371875 38.625 44.0625 C38.11839844 45.29226562 38.11839844 45.29226562 37.6015625 46.546875 C37.15554688 47.62453125 36.70953125 48.7021875 36.25 49.8125 C35.58871094 51.41351563 35.58871094 51.41351563 34.9140625 53.046875 C31.99402801 59.877986 31.99402801 59.877986 29.625 61.0625 C24.08653846 61.29326923 24.08653846 61.29326923 21.625 60.0625 C21.295 61.0525 20.965 62.0425 20.625 63.0625 C16.03068416 65.35965792 11.14822778 64.559536 6.45263672 63.02734375 C2.95174845 61.61308763 -0.4949602 60.11326226 -3.9375 58.5625 C-5.13697266 58.03785156 -6.33644531 57.51320312 -7.57226562 56.97265625 C-10.51328285 55.68376424 -13.44680645 54.38020303 -16.375 53.0625 C-16.50261719 54.01253906 -16.63023437 54.96257812 -16.76171875 55.94140625 C-17.375 59.0625 -17.375 59.0625 -19.1875 61 C-21.375 62.0625 -21.375 62.0625 -23.375 62.125 C-26.64042144 60.39024486 -28.24098182 58.51495536 -29.375 55.0625 C-30.03702102 46.25252802 -27.7528488 37.3768311 -25.9375 28.8125 C-25.72037354 27.78777588 -25.50324707 26.76305176 -25.27954102 25.70727539 C-25.06483154 24.74684326 -24.85012207 23.78641113 -24.62890625 22.796875 C-24.43627197 21.93288086 -24.2436377 21.06888672 -24.04516602 20.17871094 C-23.375 18.0625 -23.375 18.0625 -21.375 16.0625 C-20.42882812 15.79179687 -19.48265625 15.52109375 -18.5078125 15.2421875 C-14.7839104 13.83992012 -13.57898142 12.36509813 -11.25 9.1875 C-4.48278544 0.08301455 -4.48278544 0.08301455 0 0 Z " fill="#FAFAFA" transform="translate(278.375,155.9375)"/>
<path d="M0 0 C1.06041504 0.24250488 2.12083008 0.48500977 3.21337891 0.73486328 C13.80357011 3.19280138 24.22227555 6.18237611 34.64428711 9.26928711 C43.31662797 11.83155388 52.03679592 14.18831475 60.77539062 16.51293945 C66.75458456 18.10898106 72.7011807 19.77284627 78.625 21.5625 C81.41333423 22.38671808 84.20603206 23.1951093 87 24 C87.89895996 24.26232422 88.79791992 24.52464844 89.72412109 24.79492188 C106.6120003 29.64644066 123.703608 33.01264864 141 28 C142.22203125 27.66226563 143.4440625 27.32453125 144.703125 26.9765625 C148.14495736 26.01617058 151.57437774 25.01682736 155 24 C153.58726332 32.14723872 148.5760719 37.34026807 142 42 C122.25830848 53.1328717 102.74147464 54.40708891 81 49 C78.89475156 48.27396253 76.79057867 47.54479877 74.6875 46.8125 C59.11199609 42.1577517 40.52821209 43.91544255 25 48 C22.80212327 48.52977633 20.60110187 49.0418783 18.39672852 49.54394531 C16.97142662 49.86929096 15.54828198 50.20440493 14.12866211 50.55371094 C-3.07139186 54.57678132 -20.54199429 54.31670458 -38.08911133 54.26074219 C-41.75084157 54.24918578 -45.41228374 54.25603563 -49.07400417 54.26788712 C-51.91093654 54.27509104 -54.74779958 54.27282741 -57.58473396 54.26763153 C-59.59119482 54.26565446 -61.5976584 54.271713 -63.60411072 54.27789307 C-64.81039627 54.27158875 -66.01668182 54.26528442 -67.25952148 54.25878906 C-68.32299301 54.25719788 -69.38646454 54.25560669 -70.48216248 54.25396729 C-73 54 -73 54 -75 52 C-74.12303467 51.94054199 -73.24606934 51.88108398 -72.3425293 51.81982422 C-49.59290885 50.21917065 -27.39822689 47.2617093 -5 43 C-3.73075684 42.75926758 -2.46151367 42.51853516 -1.15380859 42.27050781 C3.36491717 41.40916889 7.8831771 40.54694138 12.39477539 39.64892578 C24.46140349 37.25627236 36.04477419 35.63503782 48.375 35.6875 C49.66833252 35.68951416 50.96166504 35.69152832 52.29418945 35.69360352 C64.60387801 35.82010145 78.2017907 36.06726357 90 40 C91.47965926 40.14573058 92.96403843 40.24663268 94.44921875 40.31640625 C95.29677734 40.35830078 96.14433594 40.40019531 97.01757812 40.44335938 C98.33918945 40.50233398 98.33918945 40.50233398 99.6875 40.5625 C100.58017578 40.60568359 101.47285156 40.64886719 102.39257812 40.69335938 C104.59490108 40.79935353 106.79733473 40.90142051 109 41 C109 40.34 109 39.68 109 39 C107.72125 38.773125 106.4425 38.54625 105.125 38.3125 C100.42754126 37.37561072 95.84974383 36.13609547 91.25 34.8125 C81.39927195 32.00685971 71.44219852 29.71367944 61.46232605 27.41827393 C60.80057877 27.26606384 60.13883148 27.11385376 59.45703125 26.95703125 C58.78283646 26.80208191 58.10864166 26.64713257 57.41401672 26.48748779 C52.14807619 25.27367728 46.89128001 24.0238009 41.63671875 22.76171875 C15.8414253 16.57141727 -9.97065266 10.8217658 -36.15234375 6.4765625 C-39.14541962 5.97566366 -42.13523676 5.45778667 -45.125 4.9375 C-51.07566789 3.9079467 -57.03434817 2.93846585 -63 2 C-64.11592529 1.81775879 -64.11592529 1.81775879 -65.25439453 1.63183594 C-105.42489289 -4.74141386 -144.19432043 3.34800051 -182.16796875 16.375 C-186.70211074 17.92161309 -191.27116909 19.30240476 -195.875 20.625 C-203.66224423 22.8665483 -211.32761199 25.38863928 -219 28 C-241.02800528 35.49484808 -241.02800528 35.49484808 -246 34 C-238.84149948 28.79992382 -231.20541137 25.00075715 -223.1875 21.3125 C-222.53981659 21.01207794 -221.89213318 20.71165588 -221.224823 20.40213013 C-207.38228077 13.99292337 -193.30269687 8.30788973 -179 3 C-177.89543457 2.58548584 -177.89543457 2.58548584 -176.76855469 2.16259766 C-172.56072908 0.60114208 -168.3122033 -0.76202385 -164 -2 C-163.06994141 -2.2676416 -162.13988281 -2.5352832 -161.18164062 -2.81103516 C-105.76104282 -18.49530366 -55.2638206 -12.68127314 0 0 Z " fill="#F7F7F7" transform="translate(508,56)"/>
<path d="M0 0 C0.33 0.66 0.66 1.32 1 2 C-11.14767029 5.13703573 -23.28884126 7.80525242 -35.69433594 9.6706543 C-40.79675303 10.45297942 -45.86783559 11.3392564 -50.9375 12.3125 C-74.0650613 16.73483198 -97.30950637 19.9033601 -120.68484497 22.72085571 C-122.18135715 22.90129409 -123.67725345 23.08695081 -125.17233276 23.27890015 C-131.56510083 24.06077411 -137.94865501 24.29801431 -144.3828125 24.5 C-146.20408409 24.56036438 -146.20408409 24.56036438 -148.06214905 24.62194824 C-151.38629084 24.73009084 -154.71050041 24.83434673 -158.03484726 24.93588257 C-160.14172615 25.00051309 -162.24855348 25.0666539 -164.3553772 25.13305664 C-186.2146805 25.81760743 -208.0703342 26.21644861 -229.93844604 26.47333145 C-300.96608841 27.31555408 -370.17281567 30.32891232 -438.6796875 50.73828125 C-440.119195 51.1608919 -441.5592847 51.58152538 -443 52 C-444.08909668 52.31976807 -444.08909668 52.31976807 -445.20019531 52.64599609 C-448.88689649 53.6623437 -451.3522051 54.12955856 -455 53 C-431.9522025 40.72345184 -407.25773997 32.2613285 -382 25.8125 C-381.12480713 25.58667236 -380.24961426 25.36084473 -379.34790039 25.12817383 C-361.06952324 20.6229054 -342.43044146 18.06598513 -323.75 15.9375 C-322.64503174 15.80993317 -321.54006348 15.68236633 -320.40161133 15.55093384 C-278.47659707 10.75584069 -236.18859432 8.95341089 -194.00448418 8.77020454 C-190.22023924 8.75322956 -186.43607291 8.72998929 -182.65187073 8.70530701 C-171.9124063 8.63608383 -161.17291005 8.57542203 -150.43334961 8.52319336 C-122.78807238 8.38527729 -95.16287013 8.1449304 -67.53515625 7.08984375 C-66.48465025 7.05150484 -65.43414425 7.01316593 -64.35180473 6.97366524 C-51.22606147 6.48259586 -38.17221604 5.88675993 -25.3125 3 C-17.02001964 1.21392731 -8.43554575 0.76374228 0 0 Z " fill="#FAFAFA" transform="translate(519,82)"/>
<path d="M0 0 C-1.33933033 4.41979007 -3.65046292 6.97376178 -6.85546875 10.15625 C-8.18908283 11.98045031 -8.18908283 11.98045031 -8.15234375 14.40625 C-6.35924707 18.4422371 -3.11731533 19.86534598 0.625 22 C2.03519857 22.83105625 3.44406383 23.66437927 4.8515625 24.5 C5.54338623 24.91032471 6.23520996 25.32064941 6.94799805 25.7434082 C12.69024851 29.25981072 17.63645335 32.45902205 20 39 C21.57218013 47.14675159 17.27368401 54.26394326 13 61 C1.24983857 76.90856702 -17.11831335 84.19580651 -36.23828125 87.08203125 C-48.23785709 88.61023034 -60.35952821 88.3963538 -72.4375 88.5 C-90.05229284 88.65316187 -107.46560016 89.23981713 -125 91 C-125.14773865 91.56633148 -125.29547729 92.13266296 -125.44769287 92.71615601 C-125.85501635 94.27756266 -126.26272607 95.83886859 -126.67077637 97.40008545 C-127.09623206 99.0343464 -127.51526904 100.67028182 -127.93066406 102.30712891 C-129.58503922 108.44267885 -131.51999692 113.34666461 -137 117 C-139.05078125 117.3359375 -139.05078125 117.3359375 -141.3125 117.375 C-142.05113281 117.40335937 -142.78976562 117.43171875 -143.55078125 117.4609375 C-147.23350202 116.76785767 -149.23741284 115.52704866 -152 113 C-152.32378019 110.01053438 -152.32133094 107.96637962 -151.9375 105.0625 C-151.87111328 104.35931641 -151.80472656 103.65613281 -151.73632812 102.93164062 C-151.36634765 99.24220912 -150.80039257 95.61947437 -150 92 C-150.87011719 92.2165625 -150.87011719 92.2165625 -151.7578125 92.4375 C-160.7997558 94.58608059 -160.7997558 94.58608059 -165 94 C-169.55573937 91.00622841 -170.76118362 86.06377497 -172 81 C-172.3125 78.0625 -172.3125 78.0625 -172 76 C-169.45749916 73.45749916 -168.08932772 73.55771163 -164.5546875 73.1484375 C-163.47832031 73.01953125 -162.40195312 72.890625 -161.29296875 72.7578125 C-159.60107422 72.56832031 -159.60107422 72.56832031 -157.875 72.375 C-156.17150391 72.17390625 -156.17150391 72.17390625 -154.43359375 71.96875 C-151.62320259 71.63811575 -148.81211828 71.31554914 -146 71 C-145.68546875 69.84242188 -145.3709375 68.68484375 -145.046875 67.4921875 C-144.6151427 65.95296799 -144.1828196 64.41391412 -143.75 62.875 C-143.44255859 61.73417969 -143.44255859 61.73417969 -143.12890625 60.5703125 C-140.96920345 52.97862994 -137.54000756 47.49625519 -131 43 C-128.9375 42.8125 -128.9375 42.8125 -127 44 C-120.86470679 50.70601816 -120.86470679 50.70601816 -120.90234375 56.3515625 C-120.90556641 57.20234375 -120.90878906 58.053125 -120.91210938 58.9296875 C-120.92467773 60.26386719 -120.92467773 60.26386719 -120.9375 61.625 C-120.94201172 62.5221875 -120.94652344 63.419375 -120.95117188 64.34375 C-120.96297409 66.56256648 -120.97943845 68.78125018 -121 71 C-120.31454102 70.95866943 -119.62908203 70.91733887 -118.92285156 70.87475586 C-112.6360957 70.55104241 -108.20505571 71.42408574 -103 75 C-102.10667969 75.86496094 -101.21335937 76.72992188 -100.29296875 77.62109375 C-96.56953597 80.76110745 -93.26445136 80.61486971 -88.5625 80.375 C-87.77045166 80.35284424 -86.97840332 80.33068848 -86.16235352 80.30786133 C-83.77297756 80.2319435 -81.3875763 80.11882262 -79 80 C-77.06253906 79.93232422 -77.06253906 79.93232422 -75.0859375 79.86328125 C-52.24764378 78.76293519 -26.31222283 74.29366363 -10 57 C-6.3082762 52.6198196 -5.23227308 48.11501453 -5.49609375 42.47265625 C-6.40524344 38.01147986 -8.97479718 35.2778165 -12 32 C-13.11955078 30.72382813 -13.11955078 30.72382813 -14.26171875 29.421875 C-17.16215115 26.14270846 -20.05568265 22.89958653 -23.2265625 19.87890625 C-25 18 -25 18 -25.75 15.1875 C-24.55291256 10.09987838 -21.22194222 7.84997669 -17 5 C-11.25595339 1.77555635 -6.67441548 -0.32295559 0 0 Z " fill="#FBFBFB" transform="translate(660,106)"/>
<path d="M0 0 C4.01148567 1.70488141 8.50017775 4.0628555 10.5 8.0625 C10.8125 10.9375 10.8125 10.9375 10.5 14.0625 C7.83381304 17.23127853 5.04375163 19.01923205 1.375 20.875 C-13.52185823 28.7883377 -25.93222849 39.43334985 -34.5 54.0625 C-24.49611073 53.79643912 -15.37854492 52.58783993 -5.73046875 49.90234375 C-2.5 49.0625 -2.5 49.0625 0.5 49.0625 C0.2834375 48.49402344 0.066875 47.92554688 -0.15625 47.33984375 C-1.9004389 42.50294954 -3.33190154 38.26188464 -2.5 33.0625 C-0.4375 31.0625 -0.4375 31.0625 2.5 30.0625 C9.15420628 30.2195558 12.99643235 33.03763534 18.125 36.875 C18.86234375 37.40931641 19.5996875 37.94363281 20.359375 38.49414062 C24.15081631 41.25618524 27.86531002 44.09584593 31.5 47.0625 C31.75136719 46.24136719 32.00273437 45.42023438 32.26171875 44.57421875 C33.69048427 40.52229383 35.42591148 36.72989368 37.3125 32.875 C37.64314453 32.16408203 37.97378906 31.45316406 38.31445312 30.72070312 C40.43698704 26.39008211 42.05525107 24.25709479 46.5 22.0625 C47.92475543 20.90986002 49.32230629 19.72260095 50.6875 18.5 C51.69876953 17.60087891 51.69876953 17.60087891 52.73046875 16.68359375 C54.01519377 15.50663815 55.26798075 14.29451925 56.5 13.0625 C60.57080397 13.15296231 62.20557792 13.80733419 65.3125 16.5 C68.53093176 20.27016292 68.86728428 22.93054071 69.5625 27.8125 C69.82740234 29.63007813 69.82740234 29.63007813 70.09765625 31.484375 C70.46131954 34.71850678 70.57476926 37.81252958 70.5 41.0625 C71.16 41.31 71.82 41.5575 72.5 41.8125 C76.26360907 43.38067045 79.8711424 45.20755046 83.5 47.0625 C82.26302083 48.49479167 81.02604167 49.92708333 79.7890625 51.359375 C77.03830555 54.99370843 76.31665911 57.93257713 75.875 62.4375 C75.1376453 66.83803285 74.19625732 69.00812736 70.6875 71.8125 C68.13841998 73.3981845 66.76472979 74.03843366 63.75 74.3125 C60.51898078 72.51748932 59.23566126 70.27668752 57.5 67.0625 C57.5 64.0625 57.5 64.0625 60 61.375 C60.825 60.611875 61.65 59.84875 62.5 59.0625 C61.78972656 59.22234375 61.07945312 59.3821875 60.34765625 59.546875 C57.496433 60.06314588 54.83280304 60.26417784 51.9375 60.3125 C51.00808594 60.33828125 50.07867187 60.3640625 49.12109375 60.390625 C46.08704942 60.01080425 44.75126123 59.07539239 42.5 57.0625 C42.09007812 58.04992187 41.68015625 59.03734375 41.2578125 60.0546875 C40.71379826 61.34906621 40.16951331 62.64333116 39.625 63.9375 C39.35558594 64.58847656 39.08617187 65.23945313 38.80859375 65.91015625 C37.61576714 68.73220945 36.68742011 70.87507989 34.5 73.0625 C28.36454183 73.73182271 28.36454183 73.73182271 25.5625 71.5625 C24.07569203 68.06412831 23.93603852 64.81247765 24.5 61.0625 C25.51953125 58.8125 25.51953125 58.8125 26.5 57.0625 C25.2625 57.73345703 25.2625 57.73345703 24 58.41796875 C15.07261361 63.09089757 6.23981658 66.49367765 -3.5 69.0625 C-4.71429688 69.38347656 -5.92859375 69.70445312 -7.1796875 70.03515625 C-17.09259953 72.32685097 -30.81141631 75.22074576 -40.37890625 70.703125 C-46.28220963 65.78914134 -48.95910628 59.59043385 -49.6953125 52.06640625 C-50.1938824 42.47724516 -45.81623844 35.68714968 -39.8046875 28.51953125 C-36.25077927 24.73070366 -32.34857971 21.53245924 -28.22509766 18.3828125 C-26.22599746 16.85279073 -24.24439607 15.30123898 -22.26171875 13.75 C-20.75861827 12.58229539 -19.25471234 11.41562682 -17.75 10.25 C-17.04109619 9.69852295 -16.33219238 9.1470459 -15.60180664 8.57885742 C-4.55344763 0.11383619 -4.55344763 0.11383619 0 0 Z " fill="#FAFAFA" transform="translate(166.5,143.9375)"/>
<path d="M0 0 C2.9375 1.5625 2.9375 1.5625 5 4 C5.27279838 6.69260264 5.09092543 9.28601353 5 12 C3.99582031 12.52207031 2.99164063 13.04414063 1.95703125 13.58203125 C-12.58012981 21.32410584 -23.65437765 29.55274439 -32 44 C-22.26571024 42.99337378 -12.59441093 41.98650799 -3 40 C-3.25136719 39.34773438 -3.50273437 38.69546875 -3.76171875 38.0234375 C-6.27896306 30.82220693 -6.27896306 30.82220693 -4.8125 26.5 C-3 24 -3 24 -1 22 C2.19458137 22.37364745 4.45741081 23.75602076 7.109375 25.50390625 C7.86347656 25.99697266 8.61757813 26.49003906 9.39453125 26.99804688 C10.56048828 27.77245117 10.56048828 27.77245117 11.75 28.5625 C12.54277344 29.08263672 13.33554687 29.60277344 14.15234375 30.13867188 C16.1049282 31.42079058 18.05393387 32.70801774 20 34 C24.10191878 28.66188652 25.38710409 24.83883901 25 18 C24.505 17.01 24.505 17.01 24 16 C23.43933054 10.11297071 23.43933054 10.11297071 24 8 C27.56531648 5.47525892 30.87479754 4.34213997 35.11328125 3.39453125 C36.8622168 3.00297852 36.8622168 3.00297852 38.64648438 2.60351562 C40.46116211 2.21196289 40.46116211 2.21196289 42.3125 1.8125 C44.10977539 1.40354492 44.10977539 1.40354492 45.94335938 0.98632812 C61.17491223 -2.36209589 61.17491223 -2.36209589 67.5 0.6875 C70 3 70 3 70.6875 5.5 C69.70425631 9.07543159 68.06463323 9.93819178 65 12 C62.24234429 13.09444792 59.42878234 13.86796279 56.5625 14.625 C55.08438141 15.03293491 53.60651181 15.44177322 52.12890625 15.8515625 C51.42910645 16.04266602 50.72930664 16.23376953 50.00830078 16.43066406 C47.30734563 17.19636154 44.65303757 18.08341967 42 19 C42.495 19.99 42.495 19.99 43 21 C43.71285156 20.93039063 44.42570312 20.86078125 45.16015625 20.7890625 C50.50534662 20.48691177 54.03028448 20.35602096 58.1875 24 C59.15109582 24.97487914 60.09910937 25.96689675 61 27 C59.72509667 30.93095192 58.65211941 32.98172348 55 35 C49.40216855 36.76773625 44.17984776 37.28139742 38.3203125 37.4609375 C35.8613203 37.76251889 35.8613203 37.76251889 34.6796875 39.8515625 C33.84918545 42.10114796 33.84918545 42.10114796 34 45 C34.89924194 44.85582642 34.89924194 44.85582642 35.81665039 44.70874023 C38.56371602 44.27443517 41.31296397 43.85586794 44.0625 43.4375 C45.47692383 43.21030273 45.47692383 43.21030273 46.91992188 42.97851562 C52.23589652 42.18204556 56.74304058 41.75566652 62 43 C63.9375 44.6875 63.9375 44.6875 65 47 C65.1875 50.25 65.1875 50.25 65 53 C54.16171623 59.75996049 39.63662737 61.56995858 27 60 C24.07481821 58.67960544 22.47206419 57.813626 20.85546875 55.02734375 C20.63503906 54.33769531 20.41460937 53.64804688 20.1875 52.9375 C19.83751953 51.89916016 19.83751953 51.89916016 19.48046875 50.83984375 C19 49 19 49 19 47 C18.14019531 47.38671875 17.28039062 47.7734375 16.39453125 48.171875 C0.53016366 55.16119289 -16.37791004 60.94988547 -34 59 C-39.19665203 56.67046633 -40.75262399 54.09124056 -43 49 C-44.74476283 42.9977464 -46.21614642 36.94637365 -43.76171875 31 C-41.70735643 28.07370337 -39.48256803 25.57284324 -37 23 C-35.72382813 21.55367187 -35.72382813 21.55367187 -34.421875 20.078125 C-28.82006634 13.9174352 -22.52849406 8.91610131 -15.6875 4.1875 C-14.55852295 3.38614624 -14.55852295 3.38614624 -13.40673828 2.56860352 C-8.60685656 -0.61273813 -5.80502534 -1.70396266 0 0 Z " fill="#FAFAFA" transform="translate(400,158)"/>
<path d="M0 0 C-3.08456753 8.99665528 -10.67636886 14.9268051 -18.875 19.3125 C-35.11152456 25.7573215 -55.83111825 23.22219558 -73 23 C-72.505 21.515 -72.505 21.515 -72 20 C-70.33959961 19.21972656 -70.33959961 19.21972656 -68.15234375 18.640625 C-66.92197388 18.30333374 -66.92197388 18.30333374 -65.66674805 17.95922852 C-64.76609619 17.72518311 -63.86544434 17.4911377 -62.9375 17.25 C-61.00494195 16.72363331 -59.07266031 16.19625093 -57.140625 15.66796875 C-55.6237207 15.25877197 -55.6237207 15.25877197 -54.07617188 14.84130859 C-49.09457101 13.47888029 -44.14229109 12.01885641 -39.1875 10.5625 C-37.18753666 9.97904097 -35.18753625 9.39570902 -33.1875 8.8125 C-28.87217071 7.55109605 -24.56036859 6.27824724 -20.25 5 C-19.15147705 4.67572021 -18.0529541 4.35144043 -16.92114258 4.01733398 C-14.80540313 3.39259582 -12.69061311 2.76463104 -10.5769043 2.13305664 C-9.62726807 1.85324951 -8.67763184 1.57344238 -7.69921875 1.28515625 C-6.86221436 1.03644775 -6.02520996 0.78773926 -5.1628418 0.53149414 C-3 0 -3 0 0 0 Z " fill="#F6F6F6" transform="translate(145,124)"/>
<path d="M0 0 C4.89620823 0.49428388 8.26736917 2.93638238 12.1875 5.6875 C13.51686833 6.60094199 14.847602 7.51240009 16.1796875 8.421875 C16.82776367 8.86466797 17.47583984 9.30746094 18.14355469 9.76367188 C21.38230632 11.92056802 24.75257765 13.8427362 28.14453125 15.74609375 C30 17 30 17 32 20 C32.69822157 26.28399417 33.0122007 32.82296684 29 38 C26.56642438 39.77448223 24.72044156 40.86015019 22 42 C21.29746094 42.30035156 20.59492187 42.60070312 19.87109375 42.91015625 C10.04274091 46.30196341 -0.75057003 45.26447517 -11 45 C-11 44.34 -11 43.68 -11 43 C-9.88882813 42.75765625 -8.77765625 42.5153125 -7.6328125 42.265625 C7.89343118 39.68684035 7.89343118 39.68684035 20 31 C20.75085106 28.58736705 20.75085106 28.58736705 20 26 C17.42028493 22.29165958 14.61120786 19.65436983 11.125 16.8125 C6.26508666 12.69173698 2.97305441 7.60234941 0 2 C0 1.34 0 0.68 0 0 Z " fill="#F7F7F7" transform="translate(49,152)"/>
<path d="M0 0 C0.66 0 1.32 0 2 0 C2.08165496 2.20770805 2.13948488 4.41630425 2.1875 6.625 C2.23970703 8.46964844 2.23970703 8.46964844 2.29296875 10.3515625 C1.86417988 15.69141327 -0.00694928 19.46694265 -4 23 C-9.9639591 25.76107722 -14.79781879 26.41722841 -21.3125 26.29296875 C-22.16682617 26.28872391 -23.02115234 26.28447906 -23.90136719 26.28010559 C-26.60124682 26.26345703 -29.30035011 26.22583223 -32 26.1875 C-33.84243705 26.17243523 -35.68488593 26.15874998 -37.52734375 26.14648438 C-42.01852339 26.11359906 -46.50913056 26.06191456 -51 26 C-51 25.34 -51 24.68 -51 24 C-47.68784607 23.51842161 -44.37521694 23.04018889 -41.0625 22.5625 C-40.13630859 22.42779297 -39.21011719 22.29308594 -38.25585938 22.15429688 C-33.90384483 21.52821759 -29.57540081 20.95316901 -25.1953125 20.56640625 C-17.76403268 19.76112334 -10.47863255 16.11777791 -5.4375 10.5625 C-2.95118083 7.27674487 -1.41649811 3.85602263 0 0 Z " fill="#F6F6F6" transform="translate(434,62)"/>
<path d="M0 0 C0.66 0 1.32 0 2 0 C3.19287411 3.87684087 4 6.91621923 4 11 C0.37 11.33 -3.26 11.66 -7 12 C-2.25 3.375 -2.25 3.375 0 0 Z " fill="#121212" transform="translate(328,179)"/>
<path d="M0 0 C0.66 0.33 1.32 0.66 2 1 C2.91223868 4.29419525 3.40281175 7.63015202 4 11 C0.37 11.33 -3.26 11.66 -7 12 C-5.05372161 7.13430402 -3.07915761 4.13255363 0 0 Z " fill="#101010" transform="translate(221,179)"/>
<path d="M0 0 C0.66 0 1.32 0 2 0 C4.1875 2.3125 4.1875 2.3125 6 5 C5 8 5 8 3.29296875 8.94921875 C2.25076172 9.31466797 2.25076172 9.31466797 1.1875 9.6875 C0.15689453 10.06455078 0.15689453 10.06455078 -0.89453125 10.44921875 C-3 11 -3 11 -7 11 C-5.25731793 7.03935893 -2.85325271 3.25563451 0 0 Z " fill="#0F0F0F" transform="translate(276,173)"/>
</svg>
